<svg xmlns="http://www.w3.org/2000/svg" xmlns:xlink="http://www.w3.org/1999/xlink" viewBox="0,0,256,256" width="480px" height="480px" fill-rule="nonzero"><g fill="#ffffff" fill-rule="nonzero" stroke="none" stroke-width="1" stroke-linecap="butt" stroke-linejoin="miter" stroke-miterlimit="10" stroke-dasharray="" stroke-dashoffset="0" font-family="none" font-weight="none" font-size="none" text-anchor="none" style="mix-blend-mode: normal"><g transform="scale(8.53333,8.53333)"><path d="M11,2c-1.105,0 -2,0.895 -2,2v8v1v6.5c-2.552,-1.299 -3.711,-1.5 -5,-1.5c-1.49609,0 -2.99026,0.57731 -2.99805,2.48633l4.49805,2.01367l3.15625,3.15625c1.5,1.5 3.5362,2.34375 5.6582,2.34375h6.68555c2.209,0 4,-1.791 4,-4v-10c0,-1.10457 -0.89543,-2 -2,-2c-0.77365,0.00117 -1.47724,0.44842 -1.80664,1.14844c-0.12655,-0.0862 -0.19336,-0.14844 -0.19336,-0.14844c0,-1.10457 -0.89543,-2 -2,-2c-1.10457,0 -2,0.89543 -2,2v-1c0,-1.105 -0.895,-2 -2,-2c-1.105,0 -2,0.895 -2,2v-8c0,-1.105 -0.895,-2 -2,-2zM1.00195,20.48633h-0.00195v0.01367c0,-0.00501 0.00193,-0.00868 0.00195,-0.01367z"></path></g></g></svg>